<?xml version="1.0" standalone="no"?>
<!DOCTYPE svg PUBLIC "-//W3C//DTD SVG 20010904//EN"
 "http://www.w3.org/TR/2001/REC-SVG-20010904/DTD/svg10.dtd">
<svg version="1.0" xmlns="http://www.w3.org/2000/svg"
 width="512.000000pt" height="512.000000pt" viewBox="0 0 512.000000 512.000000"
 preserveAspectRatio="xMidYMid meet">

<g transform="translate(0.000000,512.000000) scale(0.100000,-0.100000)"
fill="#000000" stroke="none">
<path d="M1010 5105 c-247 -39 -465 -149 -648 -329 -278 -270 -405 -646 -348
-1026 40 -260 150 -477 340 -666 176 -177 362 -277 608 -330 115 -25 352 -25
468 0 474 102 835 463 936 936 25 118 25 354 1 468 -53 241 -150 424 -320 599
-269 278 -655 408 -1037 348z m400 -179 c101 -24 176 -52 266 -100 255 -136
435 -365 511 -651 23 -87 26 -120 26 -250 0 -130 -3 -163 -26 -247 -50 -188
-136 -339 -271 -474 -135 -135 -286 -221 -474 -271 -84 -23 -117 -26 -247 -26
-130 0 -163 3 -250 26 -384 102 -657 386 -753 782 -20 85 -22 312 -4 400 30
137 93 290 164 392 47 69 163 187 236 242 116 87 280 157 423 181 41 6 81 13
89 15 35 9 250 -5 310 -19z"/>
<path d="M734 4426 c-43 -19 -59 -66 -39 -110 8 -17 96 -112 195 -211 l180
-180 -189 -190 c-116 -116 -192 -200 -196 -217 -14 -58 50 -121 102 -102 13 5
109 94 213 199 l190 190 187 -187 c104 -103 200 -191 215 -197 65 -24 132 42
107 106 -6 15 -94 112 -197 216 l-187 187 192 193 c105 105 194 202 198 214
16 56 -57 117 -113 94 -15 -7 -111 -95 -212 -196 l-184 -185 -192 190 c-105
105 -196 190 -202 190 -6 0 -16 2 -24 5 -7 2 -27 -2 -44 -9z"/>
<path d="M2850 4764 c-111 -30 -199 -104 -252 -212 l-33 -67 -5 -1185 -5
-1186 -264 232 c-322 284 -331 289 -501 289 -109 0 -119 -2 -183 -32 -85 -41
-156 -112 -199 -201 -27 -57 -33 -81 -36 -158 -5 -107 11 -173 60 -251 18 -28
291 -316 607 -638 316 -323 592 -608 613 -634 48 -58 111 -178 133 -253 9 -32
22 -112 30 -178 15 -137 39 -191 105 -239 73 -52 67 -52 900 -49 863 3 800 -2
878 72 71 66 76 85 83 346 9 306 29 383 157 594 78 130 114 214 150 345 l26
96 4 497 c3 432 1 506 -13 560 -63 247 -319 373 -536 264 -60 -31 -59 -31 -59
-8 0 9 -13 45 -30 80 -36 77 -109 150 -187 189 -51 25 -69 28 -153 28 -83 0
-103 -3 -157 -29 -34 -15 -70 -37 -79 -47 -18 -20 -44 -26 -44 -10 0 18 -104
113 -148 135 -104 53 -218 56 -321 10 -29 -13 -55 -24 -57 -24 -2 0 -4 298 -4
663 0 567 -2 671 -16 722 -38 147 -147 253 -292 284 -68 14 -104 13 -172 -5z
m187 -178 c36 -18 80 -62 101 -101 15 -27 17 -116 22 -911 5 -849 6 -883 24
-903 19 -21 66 -28 101 -15 25 10 45 59 45 112 0 118 94 215 208 215 65 0 102
-16 149 -65 43 -44 63 -96 63 -160 0 -85 16 -126 55 -145 29 -14 38 -14 66 -3
33 14 59 59 59 105 0 14 9 42 19 63 68 132 229 163 329 62 62 -62 66 -78 72
-273 5 -173 6 -179 29 -198 36 -29 94 -25 120 7 12 15 21 37 21 49 0 50 30
121 67 156 53 51 79 62 145 62 75 0 140 -38 183 -107 l30 -49 3 -451 c2 -292
-1 -481 -8 -536 -16 -121 -63 -254 -126 -357 -82 -132 -140 -258 -170 -363
-23 -84 -27 -120 -33 -320 -7 -231 -12 -259 -51 -280 -12 -6 -274 -10 -760
-10 -637 0 -745 2 -770 15 -33 17 -36 25 -45 125 -19 206 -88 385 -204 523
-22 27 -298 311 -613 633 -398 406 -581 601 -600 636 -22 40 -28 63 -28 114 0
108 46 186 136 230 46 22 64 26 121 22 38 -2 85 -12 105 -22 21 -10 172 -136
336 -280 163 -143 314 -276 335 -293 48 -42 96 -45 132 -8 l25 24 0 1263 c0
867 3 1275 11 1302 14 51 80 121 132 140 48 18 122 14 164 -8z"/>
</g>
</svg>
